<?xml version="1.0" encoding="UTF-8" standalone="no"?>
<svg
   height="25"
   viewBox="0 -960 1000 1000"
   width="25"
   fill="#e3e3e3"
   version="1.1"
   id="svg51"
   xmlns="http://www.w3.org/2000/svg"
   xmlns:svg="http://www.w3.org/2000/svg">
  <defs
     id="defs55" />
  <path
     d="M 500,40 Q 291.66667,40 145.83333,-105.83333 0,-251.66667 0,-460 0,-668.33333 145.83333,-814.16667 291.66667,-960 500,-960 q 19.44444,0 38.19444,1.3889 18.75,1.38887 36.80556,4.16666 -56.94444,40.27777 -90.97223,104.86111 Q 450,-785 450,-710 q 0,125 87.5,212.5 87.5,87.5 212.5,87.5 76.3889,0 140.27777,-34.02777 63.8889,-34.02779 104.16667,-90.97223 2.77779,18.05556 4.16666,36.80556 1.3889,18.75 1.3889,38.19444 0,208.33333 -145.83333,354.16667 Q 708.33333,40 500,40 Z m 0,-111.111104 q 122.22223,0 219.44444,-67.361126 97.22223,-67.3611 141.66666,-175.69444 -27.77777,6.94444 -55.55554,11.11111 -27.77779,4.16666 -55.55556,4.16666 -170.83333,0 -290.97223,-120.13887 Q 338.8889,-539.16667 338.8889,-710 q 0,-27.77777 4.16666,-55.55556 4.16667,-27.77777 11.11111,-55.55554 -108.33334,44.44443 -175.69444,141.66666 Q 111.1111,-582.22223 111.1111,-460 q 0,161.1111 113.8889,275 113.8889,113.888896 275,113.888896 z M 486.1111,-446.1111 Z"
     id="path49"
     style="fill:#000000;stroke-width:1.38889" />
</svg>
