<?xml version="1.0" encoding="UTF-8" standalone="no"?>
<svg
   height="20px"
   viewBox="0 -960 960 960"
   width="20px"
   fill="#ABC4FF"
   version="1.1"
   id="svg1"
   sodipodi:docname="light_mode_icon.svg"
   inkscape:version="1.4.2 (ebf0e940, 2025-05-08)"
   xmlns:inkscape="http://www.inkscape.org/namespaces/inkscape"
   xmlns:sodipodi="http://sodipodi.sourceforge.net/DTD/sodipodi-0.dtd"
   xmlns="http://www.w3.org/2000/svg"
   xmlns:svg="http://www.w3.org/2000/svg">
  <defs
     id="defs1" />
  <sodipodi:namedview
     id="namedview1"
     pagecolor="#ffffff"
     bordercolor="#000000"
     borderopacity="0.25"
     inkscape:showpageshadow="2"
     inkscape:pageopacity="0.0"
     inkscape:pagecheckerboard="0"
     inkscape:deskcolor="#d1d1d1"
     inkscape:zoom="21.90438"
     inkscape:cx="2.5793928"
     inkscape:cy="11.36759"
     inkscape:window-width="1472"
     inkscape:window-height="895"
     inkscape:window-x="0"
     inkscape:window-y="61"
     inkscape:window-maximized="0"
     inkscape:current-layer="svg1" />
  <path
     d="m 480,-360 c 33.33333,0 61.66667,-11.66667 85,-35 23.33333,-23.33333 35,-51.66667 35,-85 0,-33.33333 -11.66667,-61.66667 -35,-85 -23.33333,-23.33333 -51.66667,-35 -85,-35 -33.33333,0 -61.66667,11.66667 -85,35 -23.33333,23.33333 -35,51.66667 -35,85 0,33.33333 11.66667,61.66667 35,85 23.33333,23.33333 51.66667,35 85,35 z m 0,80 c -55.33333,0 -102.5,-19.5 -141.5,-58.5 -39,-39 -58.5,-86.16667 -58.5,-141.5 0,-55.33333 19.5,-102.5 58.5,-141.5 39,-39 86.16667,-58.5 141.5,-58.5 55.33333,0 102.5,19.5 141.5,58.5 39,39 58.5,86.16667 58.5,141.5 0,55.33333 -19.5,102.5 -58.5,141.5 -39,39 -86.16667,58.5 -141.5,58.5 z M 200,-440 H 40 v -80 h 160 z m 720,0 H 760 v -80 H 920 Z M 440,-760 v -160 h 80 v 160 z m 0,720 v -160 h 80 v 160 z m -184,-610 -101,-97 57,-59 96,100 z m 492,496 -97,-101 53,-55 101,97 z m -98,-550 97,-101 59,57 -100,96 z m -496,492 101,-97 55,53 -97,101 z"
     id="path1"
     inkscape:label="path1"
     sodipodi:nodetypes="sssssssssssssssssscccccccccccccccccccccccccccccccccccccccc"
     style="stroke:#333333;stroke-opacity:1;fill:#333333;fill-opacity:1" />
</svg>
