<?xml version="1.0" encoding="UTF-8" standalone="no"?>
<svg
   height="25"
   viewBox="0 -960 1000 1000"
   width="25"
   fill="#e3e3e3"
   version="1.1"
   id="svg118"
   xmlns="http://www.w3.org/2000/svg"
   xmlns:svg="http://www.w3.org/2000/svg">
  <defs
     id="defs122" />
  <path
     d="m 500,-323.63635 q 56.81819,0 96.59092,-39.77273 39.77273,-39.77273 39.77273,-96.59092 0,-56.81819 -39.77273,-96.59092 -39.77273,-39.77273 -96.59092,-39.77273 -56.81819,0 -96.59092,39.77273 -39.77273,39.77273 -39.77273,96.59092 0,56.81819 39.77273,96.59092 39.77273,39.77273 96.59092,39.77273 z m 0,90.90908 q -94.31819,0 -160.79546,-66.47727 Q 272.72727,-365.68181 272.72727,-460 q 0,-94.31819 66.47727,-160.79546 66.47727,-66.47727 160.79546,-66.47727 94.31819,0 160.79546,66.47727 66.47727,66.47727 66.47727,160.79546 0,94.31819 -66.47727,160.79546 Q 594.31819,-232.72727 500,-232.72727 Z M 181.81819,-414.54546 H 0 v -90.90908 h 181.81819 z m 818.18181,0 H 818.18181 v -90.90908 H 1000 Z M 454.54546,-778.18181 V -960 h 90.90908 v 181.81819 z m 0,818.18181 v -181.81819 h 90.90908 V 40 Z m -209.09092,-693.18181 -114.77273,-110.22727 64.77273,-67.04546 109.09092,113.63635 z m 559.09092,563.636352 -110.22727,-114.772732 60.22727,-62.5 114.77273,110.22727 z m -111.36365,-625.000002 110.22727,-114.77273 67.04546,64.77273 -113.63635,109.09092 z m -563.63635,559.09092 114.77273,-110.22727 62.5,60.22727 -110.22727,114.772727 z M 500,-460 Z"
     id="path116"
     style="stroke-width:1.13636" />
  <path
     style="fill:#000000;stroke-width:2.37529"
     d="m 456.057,-237.882 c -46.192,-8.61185 -86.40108,-31.26185 -121.23883,-68.29456 -22.16396,-23.56044 -37.30421,-47.86465 -47.38188,-76.06073 -10.59216,-29.63561 -14.07012,-55.06509 -12.39412,-90.62142 2.79712,-59.34058 22.60933,-103.65696 65.52908,-146.57667 42.91967,-42.9197 87.236,-62.73191 146.57667,-65.52904 35.55625,-1.676 60.98575,1.80192 90.62133,12.39413 30.35933,10.85083 54.75633,26.65102 80.50342,52.13633 43.92916,43.48242 63.85741,87.58392 66.68516,147.57525 1.67584,35.55633 -1.80166,60.98581 -12.39416,90.62142 -11.14509,31.18275 -26.58567,54.79731 -53.29134,81.50302 -34.92891,34.92885 -71.83908,54.88094 -116.517,62.98412 -22.21025,4.02825 -64.73133,3.96359 -86.69833,-0.13166 z m 73.63425,-87.94625 c 26.65067,-5.62023 44.9055,-15.95367 66.71942,-37.76765 21.814,-21.81393 32.14741,-40.06881 37.76766,-66.71948 10.2285,-48.5027 -2.42841,-90.76268 -37.76766,-126.10191 -21.81392,-21.81394 -40.06875,-32.1474 -66.71942,-37.76763 -48.50275,-10.22848 -90.76275,2.42842 -126.10192,37.76763 -35.33925,35.33923 -47.99616,77.59921 -37.76766,126.10191 5.62,26.65067 15.95366,44.90555 37.76766,66.71948 35.35259,35.35265 77.58075,48.00002 126.10192,37.76765 z"
     id="path474" />
  <path
     style="fill:#000000;stroke-width:2.37529"
     d="m 1.18765,-460.00658 v -45.13065 h 90.261283 90.261287 v 45.13065 45.13064 H 91.448933 1.18765 Z"
     id="path476" />
  <path
     style="fill:#000000;stroke-width:2.37529"
     d="m 188.72621,-709.1595 -55.92937,-54.2176 30.98875,-32.64025 30.98876,-32.64023 28.57178,29.33737 c 15.71447,16.13556 40.1385,41.26215 54.2756,55.83683 l 25.70381,26.49948 -29.04106,31.10148 c -15.97258,17.10582 -29.17333,31.06527 -29.33498,31.021 -0.16167,-0.0442 -25.46212,-24.47839 -56.22329,-54.29808 z"
     id="path478" />
  <path
     style="fill:#000000;stroke-width:2.37529"
     d="m 454.86933,-868.55765 v -90.26129 H 500 545.13067 v 90.26129 90.26127 H 500 454.86933 Z"
     id="path480" />
  <path
     style="fill:#000000;stroke-width:2.37529"
     d="m 725.78883,-685.80333 -31.18266,-29.11686 24.43091,-25.17391 c 13.437,-13.84567 37.928,-39.09269 54.42459,-56.10453 l 29.99375,-30.93058 32.67858,31.00398 32.6785,31.00398 -31.77033,30.82337 c -17.47375,16.95284 -42.63792,41.35067 -55.9205,54.21738 l -24.15017,23.394 z"
     id="path482" />
  <path
     style="fill:#000000;stroke-width:2.37529"
     d="m 818.28975,-460.00658 v -45.13065 h 90.26133 90.26125 v 45.13065 45.13064 h -90.26125 -90.26133 z"
     id="path484" />
  <path
     style="fill:#000000;stroke-width:2.37529"
     d="m 750.59383,-146.90104 c -28.74108,-30.02459 -52.6,-55.53242 -53.01983,-56.68409 -0.41667,-1.15166 12.40675,-15.47225 28.5035,-31.82341 l 29.26692,-29.72936 55.94716,53.99086 55.94725,53.99083 -30.68466,32.66033 c -16.87659,17.96317 -31.364,32.553338 -32.19425,32.422588 -0.83334,-0.133333 -25.025,-24.803248 -53.76609,-54.827748 z"
     id="path486" />
  <path
     style="fill:#000000;stroke-width:2.37529"
     d="M 454.86933,-51.455542 V -141.71679 H 500 545.13067 v 90.261248 90.261334 H 500 454.86933 Z"
     id="path488" />
  <path
     style="fill:#000000;stroke-width:2.37529"
     d="m 163.94679,-123.83246 -32.5978,-30.9485 29.33739,-28.57175 c 86.53316,-84.27498 82.26479,-80.48789 86.84681,-77.05439 2.33656,1.75089 16.25279,14.97195 30.92498,29.38016 l 26.67668,26.19673 -24.30139,25.04258 c -13.36577,13.77334 -37.79858,38.96125 -54.29513,55.97309 l -29.99374,30.930582 z"
     id="path490" />
</svg>
