<?xml version="1.0" encoding="UTF-8" standalone="no"?>
<svg
   viewBox="0 0 25 25"
   version="1.1"
   id="svg126"
   width="25"
   height="25"
   xmlns="http://www.w3.org/2000/svg"
   xmlns:svg="http://www.w3.org/2000/svg">
  <defs
     id="defs130" />
  <path
     d="M 5,0 C 3.6125,0 2.5,1.1125 2.5,2.5 v 10 C 2.5,13.8875 3.6125,15 5,15 h 15 c 1.3875,0 2.5,-1.1125 2.5,-2.5 V 2.5 C 22.5,1.1125 21.3875,0 20,0 H 5 m 0,2.5 h 15 v 10 H 5 V 2.5 M 2.5,16.25 C 1.1125,16.25 0,17.3625 0,18.75 V 22.5 C 0,23.8875 1.1125,25 2.5,25 h 20 c 1.3875,0 2.5,-1.1125 2.5,-2.5 v -3.75 c 0,-1.3875 -1.1125,-2.5 -2.5,-2.5 h -20 m 5,2.5 h 15 v 3.75 h -15 v -3.75 m 1.25,0.9375 v 1.875 h 5 v -1.875 h -5 m 7.5,0 v 1.875 h 5 v -1.875 z"
     id="path124"
     style="stroke-width:1.25" />
</svg>
