<?xml version="1.0" encoding="UTF-8" standalone="no"?>
<!-- Created with Inkscape (http://www.inkscape.org/) -->

<svg
   width="25.16848mm"
   height="11.906265mm"
   viewBox="0 0 25.16848 11.906265"
   version="1.1"
   id="svg5"
   xmlns="http://www.w3.org/2000/svg"
   xmlns:svg="http://www.w3.org/2000/svg">
  <defs
     id="defs2" />
  <g
     id="layer1"
     transform="translate(-103.25369,-51.775655)">
    <g
       transform="scale(1.0090578,0.99102354)"
       id="text578"
       style="font-weight:bold;font-size:25.6301px;font-family:Inter;-inkscape-font-specification:'Inter Bold';stroke-width:0.26698" />
    <g
       aria-label="DM"
       transform="scale(1.017212,0.98307921)"
       id="text674"
       style="font-weight:bold;font-size:16.6468px;font-family:Inter;-inkscape-font-specification:'Inter Bold';stroke-width:0.260106">
      <path
         d="m 105.78206,64.778015 h -3.12941 V 62.67278 h 2.99935 q 1.21925,0 2.01583,-0.455186 0.79657,-0.463314 1.18673,-1.341172 0.39016,-0.885987 0.39016,-2.162133 0,-1.276147 -0.39016,-2.154005 -0.39016,-0.877859 -1.18673,-1.333045 -0.78845,-0.455186 -1.99144,-0.455186 h -3.08063 v -2.105234 h 3.23507 q 1.82074,0 3.15378,0.739677 1.33305,0.731548 2.05647,2.088978 0.72342,1.357429 0.72342,3.218815 0,1.861385 -0.72342,3.226943 -0.72342,1.357429 -2.06459,2.097106 -1.33305,0.739677 -3.19443,0.739677 z m -1.77198,-12.111196 v 12.111196 h -2.50352 V 52.666819 Z"
         id="path676" />
      <path
         d="M 113.17883,64.778015 V 52.666819 h 3.64961 l 1.99957,5.641054 q 0.12192,0.382031 0.29262,0.942885 0.17069,0.552725 0.34952,1.162349 0.17882,0.601496 0.32513,1.154222 0.15444,0.552726 0.25198,0.9185 h -0.62588 q 0.0975,-0.365774 0.24385,-0.9185 0.15443,-0.552726 0.33326,-1.154222 0.17882,-0.609624 0.34139,-1.162349 0.17069,-0.560854 0.28449,-0.942885 l 1.97518,-5.641054 h 3.64962 v 12.111196 h -2.45476 v -5.75485 q 0,-0.406416 0.0163,-0.96727 0.0163,-0.560854 0.0325,-1.194863 0.0163,-0.642138 0.0325,-1.292403 0.0162,-0.658394 0.0244,-1.243633 h 0.30075 q -0.18695,0.642137 -0.39016,1.316788 -0.19508,0.67465 -0.38203,1.308659 -0.18695,0.634009 -0.35765,1.170478 -0.16256,0.528341 -0.28449,0.902244 l -2.04834,5.75485 h -2.03208 l -2.07272,-5.75485 q -0.12192,-0.373903 -0.29262,-0.902244 -0.17069,-0.536469 -0.36577,-1.170478 -0.18695,-0.634009 -0.39829,-1.308659 -0.20321,-0.674651 -0.39829,-1.316788 h 0.35765 q 0.008,0.585239 0.0244,1.243633 0.0163,0.650265 0.0325,1.292403 0.0162,0.634009 0.0244,1.194863 0.0163,0.560854 0.0163,0.96727 v 5.75485 z"
         id="path678" />
    </g>
  </g>
</svg>
