<?xml version="1.0" encoding="UTF-8" standalone="no"?>
<svg
   width="21.5"
   height="23.026783"
   viewBox="0 0 21.5 23.026783"
   fill="none"
   stroke="currentColor"
   stroke-width="2"
   stroke-linecap="round"
   stroke-linejoin="round"
   class="feather feather-github"
   version="1.1"
   id="svg344"
   sodipodi:docname="github_logo_light_mode.svg"
   inkscape:version="1.4.2 (ebf0e940, 2025-05-08)"
   xmlns:inkscape="http://www.inkscape.org/namespaces/inkscape"
   xmlns:sodipodi="http://sodipodi.sourceforge.net/DTD/sodipodi-0.dtd"
   xmlns="http://www.w3.org/2000/svg"
   xmlns:svg="http://www.w3.org/2000/svg">
  <defs
     id="defs348" />
  <sodipodi:namedview
     id="namedview346"
     pagecolor="#ffffff"
     bordercolor="#000000"
     borderopacity="0.25"
     inkscape:showpageshadow="2"
     inkscape:pageopacity="0.0"
     inkscape:pagecheckerboard="0"
     inkscape:deskcolor="#d1d1d1"
     showgrid="false"
     inkscape:zoom="35.083333"
     inkscape:cx="10.945368"
     inkscape:cy="14.650831"
     inkscape:window-width="1472"
     inkscape:window-height="895"
     inkscape:window-x="0"
     inkscape:window-y="61"
     inkscape:window-maximized="0"
     inkscape:current-layer="svg344" />
  <path
     d="m 8,19.026784 c -5,1.5 -5,-2.5 -7,-3 m 14,6 v -3.87 a 3.37,3.37 0 0 0 -0.94,-2.61 c 3.14,-0.35 6.44,-1.54 6.44,-7.0000002 a 5.44,5.44 0 0 0 -1.5,-3.75 5.07,5.07 0 0 0 -0.09,-3.77 c 0,0 -1.18,-0.34999999 -3.91,1.48 a 13.38,13.38 0 0 0 -7,0 c -2.73,-1.82999999 -3.91,-1.48 -3.91,-1.48 a 5.07,5.07 0 0 0 -0.09,3.77 5.44,5.44 0 0 0 -1.5,3.78 c 0,5.4200002 3.3,6.6100002 6.44,7.0000002 a 3.37,3.37 0 0 0 -0.94,2.58 v 3.87"
     id="path342"
     style="fill:#333333;stroke:#333333;stroke-width:2;stroke-dasharray:none;stroke-opacity:1;fill-opacity:1" />
</svg>
