<?xml version="1.0" encoding="UTF-8" standalone="no"?>
<svg
   height="512"
   style="clip-rule:evenodd;fill-rule:evenodd;stroke-linejoin:round;stroke-miterlimit:2"
   version="1.1"
   viewBox="0 0 512 512"
   width="512"
   xml:space="preserve"
   id="svg200"
   sodipodi:docname="linkedin_logo_light_mode.svg"
   inkscape:version="1.4.2 (ebf0e940, 2025-05-08)"
   xmlns:inkscape="http://www.inkscape.org/namespaces/inkscape"
   xmlns:sodipodi="http://sodipodi.sourceforge.net/DTD/sodipodi-0.dtd"
   xmlns="http://www.w3.org/2000/svg"
   xmlns:svg="http://www.w3.org/2000/svg"><defs
     id="defs204" /><sodipodi:namedview
     id="namedview202"
     pagecolor="#ffffff"
     bordercolor="#000000"
     borderopacity="0.25"
     inkscape:showpageshadow="2"
     inkscape:pageopacity="0.0"
     inkscape:pagecheckerboard="0"
     inkscape:deskcolor="#d1d1d1"
     showgrid="false"
     inkscape:zoom="1.6445312"
     inkscape:cx="263.60096"
     inkscape:cy="178.77435"
     inkscape:window-width="1472"
     inkscape:window-height="895"
     inkscape:window-x="0"
     inkscape:window-y="61"
     inkscape:window-maximized="0"
     inkscape:current-layer="svg200" /><path
     d="M 449.446,0 C 483.971,0 512,28.03 512,62.554 V 449.446 C 512,483.97 483.97,512 449.446,512 H 62.554 C 28.03,512 0,483.97 0,449.446 V 62.554 C 0,28.03 28.029,0 62.554,0 Z M 160.461,423.278 V 197.561 h -75.04 v 225.717 z m 270.539,0 V 293.839 c 0,-69.333 -37.018,-101.586 -86.381,-101.586 -39.804,0 -57.634,21.891 -67.617,37.266 v -31.958 h -75.021 c 0.995,21.181 0,225.717 0,225.717 h 75.02 V 297.222 c 0,-6.748 0.486,-13.492 2.474,-18.315 5.414,-13.475 17.767,-27.434 38.494,-27.434 27.135,0 38.007,20.707 38.007,51.037 V 423.278 Z M 123.448,88.722 C 97.774,88.722 81,105.601 81,127.724 c 0,21.658 16.264,39.002 41.455,39.002 h 0.484 c 26.165,0 42.452,-17.344 42.452,-39.002 C 164.906,105.632 149.15,88.77 123.448,88.722 Z"
     id="path198"
     style="fill:#333333;fill-opacity:1;stroke:none;stroke-opacity:1" /></svg>
